%TF.GenerationSoftware,KiCad,Pcbnew,7.0.1*%
%TF.CreationDate,2023-08-13T09:28:09+02:00*%
%TF.ProjectId,HotPlate,486f7450-6c61-4746-952e-6b696361645f,rev?*%
%TF.SameCoordinates,PX2160ec0PY93d1cc0*%
%TF.FileFunction,Legend,Bot*%
%TF.FilePolarity,Positive*%
%FSLAX46Y46*%
G04 Gerber Fmt 4.6, Leading zero omitted, Abs format (unit mm)*
G04 Created by KiCad (PCBNEW 7.0.1) date 2023-08-13 09:28:09*
%MOMM*%
%LPD*%
G01*
G04 APERTURE LIST*
%ADD10C,0.150000*%
%ADD11C,0.100000*%
G04 APERTURE END LIST*
D10*
%TO.C,TP201*%
X106571428Y105229905D02*
X106114285Y105229905D01*
X106342857Y104429905D02*
X106342857Y105229905D01*
X105847618Y104429905D02*
X105847618Y105229905D01*
X105847618Y105229905D02*
X105542856Y105229905D01*
X105542856Y105229905D02*
X105466666Y105191810D01*
X105466666Y105191810D02*
X105428571Y105153715D01*
X105428571Y105153715D02*
X105390475Y105077524D01*
X105390475Y105077524D02*
X105390475Y104963239D01*
X105390475Y104963239D02*
X105428571Y104887048D01*
X105428571Y104887048D02*
X105466666Y104848953D01*
X105466666Y104848953D02*
X105542856Y104810858D01*
X105542856Y104810858D02*
X105847618Y104810858D01*
X105085714Y105153715D02*
X105047618Y105191810D01*
X105047618Y105191810D02*
X104971428Y105229905D01*
X104971428Y105229905D02*
X104780952Y105229905D01*
X104780952Y105229905D02*
X104704761Y105191810D01*
X104704761Y105191810D02*
X104666666Y105153715D01*
X104666666Y105153715D02*
X104628571Y105077524D01*
X104628571Y105077524D02*
X104628571Y105001334D01*
X104628571Y105001334D02*
X104666666Y104887048D01*
X104666666Y104887048D02*
X105123809Y104429905D01*
X105123809Y104429905D02*
X104628571Y104429905D01*
X104133332Y105229905D02*
X104057142Y105229905D01*
X104057142Y105229905D02*
X103980951Y105191810D01*
X103980951Y105191810D02*
X103942856Y105153715D01*
X103942856Y105153715D02*
X103904761Y105077524D01*
X103904761Y105077524D02*
X103866666Y104925143D01*
X103866666Y104925143D02*
X103866666Y104734667D01*
X103866666Y104734667D02*
X103904761Y104582286D01*
X103904761Y104582286D02*
X103942856Y104506096D01*
X103942856Y104506096D02*
X103980951Y104468000D01*
X103980951Y104468000D02*
X104057142Y104429905D01*
X104057142Y104429905D02*
X104133332Y104429905D01*
X104133332Y104429905D02*
X104209523Y104468000D01*
X104209523Y104468000D02*
X104247618Y104506096D01*
X104247618Y104506096D02*
X104285713Y104582286D01*
X104285713Y104582286D02*
X104323809Y104734667D01*
X104323809Y104734667D02*
X104323809Y104925143D01*
X104323809Y104925143D02*
X104285713Y105077524D01*
X104285713Y105077524D02*
X104247618Y105153715D01*
X104247618Y105153715D02*
X104209523Y105191810D01*
X104209523Y105191810D02*
X104133332Y105229905D01*
X103104761Y104429905D02*
X103561904Y104429905D01*
X103333332Y104429905D02*
X103333332Y105229905D01*
X103333332Y105229905D02*
X103409523Y105115620D01*
X103409523Y105115620D02*
X103485713Y105039429D01*
X103485713Y105039429D02*
X103561904Y105001334D01*
X106088164Y105950000D02*
X106088164Y108000000D01*
X105488164Y108550000D02*
X105888164Y108550000D01*
X105688164Y108750000D02*
X105688164Y108350000D01*
X105488164Y106500000D02*
G75*
G03*
X105488164Y106500000I-700000J0D01*
G01*
D11*
X106288164Y107950000D02*
X105888164Y107950000D01*
X106088164Y108350000D01*
X106288164Y107950000D01*
G36*
X106288164Y107950000D02*
G01*
X105888164Y107950000D01*
X106088164Y108350000D01*
X106288164Y107950000D01*
G37*
%TD*%
M02*
