M48
; DRILL file {KiCad 7.0.1} date Sun Aug 13 09:28:01 2023
; FORMAT={-:-/ absolute / metric / decimal}
; #@! TF.CreationDate,2023-08-13T09:28:01+02:00
; #@! TF.GenerationSoftware,Kicad,Pcbnew,7.0.1
; #@! TF.FileFunction,Plated,1,2,PTH
FMAT,2
METRIC
; #@! TA.AperFunction,Plated,PTH,ViaDrill
T1C0.300
; #@! TA.AperFunction,Plated,PTH,ComponentDrill
T2C0.300
; #@! TA.AperFunction,Plated,PTH,ComponentDrill
T3C0.500
; #@! TA.AperFunction,Plated,PTH,ComponentDrill
T4C1.000
%
G90
G05
T1
X3.95Y118.597
X3.95Y110.597
X3.95Y106.597
X3.95Y102.597
X7.95Y118.597
X7.95Y114.597
X7.95Y110.597
X7.95Y106.597
X7.95Y102.597
X10.1Y104.7
X10.1Y103.7
X10.8Y109.9
X10.8Y107.1
X11.95Y118.597
X11.95Y102.597
X12.0Y112.25
X14.5Y112.3
X15.95Y118.597
X16.6Y112.0
X16.625Y109.925
X17.2Y105.375
X19.95Y106.597
X22.6Y113.7
X22.675Y106.625
X24.137Y116.262
X24.9Y108.0
X25.65Y112.8
X30.0Y108.0
X30.4Y116.875
X33.6Y118.625
X35.1Y108.0
X36.4Y116.2
X37.6Y103.7
X38.25Y106.825
X38.5Y112.9
X39.207Y116.75
X40.2Y108.0
X43.5Y109.8
X43.6Y115.0
X43.6Y112.8
X44.475Y116.75
X45.025Y106.25
X48.6Y109.8
X48.6Y108.5
X48.6Y107.3
X49.9Y109.8
X50.475Y116.75
X51.2Y108.5
X51.2Y107.3
X51.95Y115.2
X54.775Y110.525
X55.95Y114.597
X56.2Y102.2
X56.475Y116.75
X59.378Y109.668
X59.95Y102.597
X59.95Y100.8
X60.2Y109.0
X61.2Y115.0
X62.5Y105.9
X62.5Y104.3
X62.8Y109.3
X63.4Y105.9
X63.4Y104.3
X64.35Y116.7
X65.025Y103.925
X65.65Y109.2
X66.1Y100.8
X66.25Y113.75
X66.75Y110.2
X67.95Y106.597
X68.95Y104.8
X69.25Y112.05
X69.55Y100.8
X70.0Y111.4
X70.7Y110.8
X71.1Y109.25
X71.1Y107.25
X71.6Y117.95
X72.1Y114.9
X72.1Y113.7
X72.9Y113.0
X74.4Y108.4
X75.3Y105.8
X75.809Y116.867
X75.95Y114.597
X75.95Y110.597
X78.0Y113.4
X81.125Y101.35
X82.6Y104.975
X82.8Y108.4
X83.95Y106.597
X84.1Y117.75
X84.8Y108.4
X85.6Y101.35
X87.95Y114.597
X87.95Y109.3
X87.95Y106.597
X87.95Y104.975
X90.2Y111.925
X91.585Y116.229
X91.95Y106.597
X91.95Y104.975
X92.35Y101.35
X93.4Y111.95
X95.1Y111.95
X96.3Y117.65
X96.3Y116.5
X97.175Y104.975
X98.35Y101.35
X99.85Y111.55
X99.85Y110.4
X99.85Y109.25
X99.85Y108.15
X102.325Y104.975
X103.95Y118.597
X104.05Y101.35
X107.825Y104.975
X107.95Y118.597
X107.95Y110.597
X107.95Y106.597
X108.524Y108.78
X110.05Y101.35
X111.95Y118.597
X111.95Y110.597
X111.95Y106.597
X115.95Y118.597
X115.95Y106.597
X116.45Y114.5
X116.45Y112.7
X116.45Y109.6
X116.697Y101.35
X117.5Y106.0
X117.5Y104.9
X120.15Y105.4
X120.168Y107.098
X122.475Y101.35
X123.95Y114.597
X124.0Y113.3
X127.95Y114.597
X128.5Y118.6
X129.5Y101.35
X131.95Y118.597
X131.95Y114.597
X131.95Y110.597
X131.95Y106.597
X135.95Y118.597
X135.95Y114.597
X135.95Y110.597
X135.95Y106.597
X136.6Y101.35
X139.95Y118.597
X139.95Y114.597
X139.95Y110.597
X139.95Y106.597
X143.95Y118.597
X143.95Y114.597
X143.95Y110.597
X143.95Y106.597
X144.1Y101.35
X147.95Y118.597
X147.95Y114.597
X147.95Y110.597
X147.95Y106.597
X150.775Y101.35
X151.95Y118.597
X151.95Y114.597
X151.95Y110.597
X151.95Y106.597
X155.95Y118.597
X155.95Y114.597
X155.95Y110.597
X155.95Y106.597
X157.4Y101.35
X159.95Y118.597
X159.95Y114.597
X159.95Y110.597
X159.95Y106.597
X163.95Y114.597
X163.95Y110.597
X164.75Y101.35
X165.897Y108.03
X166.05Y116.85
X167.95Y118.597
X167.95Y114.597
X171.05Y114.6
X171.05Y110.6
X171.3Y101.35
X171.95Y118.597
X171.95Y106.597
X175.925Y108.036
X175.95Y114.597
X175.95Y110.597
X176.05Y116.85
X176.7Y118.6
X178.725Y101.35
X179.95Y118.597
X179.95Y114.597
X179.95Y110.597
X179.95Y106.0
X183.95Y114.597
X183.95Y110.597
X183.95Y102.597
X185.918Y108.031
X186.05Y116.85
X187.95Y118.597
X187.95Y114.597
X187.95Y102.597
X191.95Y118.597
X191.95Y114.597
X191.95Y110.597
X191.95Y106.597
X191.95Y102.597
X195.95Y118.597
X195.95Y114.597
X195.95Y110.597
X195.95Y106.597
X195.95Y102.597
X199.95Y118.597
X199.95Y114.597
X199.95Y110.597
X199.95Y106.6
X200.3Y102.6
X203.95Y118.597
X203.95Y114.597
X205.345Y101.912
X206.196Y105.87
X207.95Y118.597
X207.95Y114.597
X208.1Y109.2
X209.0Y104.403
X211.95Y118.597
X211.95Y114.597
X215.95Y118.597
X215.95Y110.597
X215.95Y102.597
T2
X31.7Y115.8
X31.7Y114.0
X32.6Y114.9
X33.5Y115.8
X33.5Y114.0
X104.788Y108.0
X104.788Y106.5
T4
X211.935Y107.2
X214.475Y107.2
T3
G00X10.68Y117.24
M15
G01X10.68Y118.14
M16
G05
G00X10.68Y113.49
M15
G01X10.68Y114.39
M16
G05
G00X19.32Y117.24
M15
G01X19.32Y118.14
M16
G05
G00X19.32Y113.49
M15
G01X19.32Y114.39
M16
G05
T0
M30
