%TF.GenerationSoftware,KiCad,Pcbnew,7.0.1*%
%TF.CreationDate,2023-08-13T09:28:09+02:00*%
%TF.ProjectId,HotPlate,486f7450-6c61-4746-952e-6b696361645f,rev?*%
%TF.SameCoordinates,PX2160ec0PY93d1cc0*%
%TF.FileFunction,Paste,Top*%
%TF.FilePolarity,Positive*%
%FSLAX46Y46*%
G04 Gerber Fmt 4.6, Leading zero omitted, Abs format (unit mm)*
G04 Created by KiCad (PCBNEW 7.0.1) date 2023-08-13 09:28:09*
%MOMM*%
%LPD*%
G01*
G04 APERTURE LIST*
G04 Aperture macros list*
%AMRoundRect*
0 Rectangle with rounded corners*
0 $1 Rounding radius*
0 $2 $3 $4 $5 $6 $7 $8 $9 X,Y pos of 4 corners*
0 Add a 4 corners polygon primitive as box body*
4,1,4,$2,$3,$4,$5,$6,$7,$8,$9,$2,$3,0*
0 Add four circle primitives for the rounded corners*
1,1,$1+$1,$2,$3*
1,1,$1+$1,$4,$5*
1,1,$1+$1,$6,$7*
1,1,$1+$1,$8,$9*
0 Add four rect primitives between the rounded corners*
20,1,$1+$1,$2,$3,$4,$5,0*
20,1,$1+$1,$4,$5,$6,$7,0*
20,1,$1+$1,$6,$7,$8,$9,0*
20,1,$1+$1,$8,$9,$2,$3,0*%
G04 Aperture macros list end*
%ADD10RoundRect,0.237500X-0.250000X-0.237500X0.250000X-0.237500X0.250000X0.237500X-0.250000X0.237500X0*%
%ADD11RoundRect,0.250000X-0.097227X0.574524X-0.574524X0.097227X0.097227X-0.574524X0.574524X-0.097227X0*%
%ADD12RoundRect,0.237500X0.250000X0.237500X-0.250000X0.237500X-0.250000X-0.237500X0.250000X-0.237500X0*%
%ADD13RoundRect,0.237500X-0.237500X0.250000X-0.237500X-0.250000X0.237500X-0.250000X0.237500X0.250000X0*%
%ADD14RoundRect,0.237500X0.237500X-0.250000X0.237500X0.250000X-0.237500X0.250000X-0.237500X-0.250000X0*%
%ADD15RoundRect,0.237500X-0.300000X-0.237500X0.300000X-0.237500X0.300000X0.237500X-0.300000X0.237500X0*%
%ADD16RoundRect,0.250000X-0.250000X0.250000X-0.250000X-0.250000X0.250000X-0.250000X0.250000X0.250000X0*%
%ADD17RoundRect,0.150000X-0.587500X-0.150000X0.587500X-0.150000X0.587500X0.150000X-0.587500X0.150000X0*%
%ADD18RoundRect,0.250000X-0.475000X0.337500X-0.475000X-0.337500X0.475000X-0.337500X0.475000X0.337500X0*%
%ADD19RoundRect,0.237500X-0.237500X0.287500X-0.237500X-0.287500X0.237500X-0.287500X0.237500X0.287500X0*%
%ADD20RoundRect,0.237500X-0.237500X0.300000X-0.237500X-0.300000X0.237500X-0.300000X0.237500X0.300000X0*%
%ADD21RoundRect,0.150000X0.512500X0.150000X-0.512500X0.150000X-0.512500X-0.150000X0.512500X-0.150000X0*%
%ADD22RoundRect,0.237500X0.237500X-0.300000X0.237500X0.300000X-0.237500X0.300000X-0.237500X-0.300000X0*%
%ADD23RoundRect,0.250000X0.337500X0.475000X-0.337500X0.475000X-0.337500X-0.475000X0.337500X-0.475000X0*%
%ADD24RoundRect,0.125000X-0.530330X0.353553X0.353553X-0.530330X0.530330X-0.353553X-0.353553X0.530330X0*%
%ADD25RoundRect,0.125000X-0.530330X-0.353553X-0.353553X-0.530330X0.530330X0.353553X0.353553X0.530330X0*%
%ADD26RoundRect,0.237500X-0.008839X-0.344715X0.344715X0.008839X0.008839X0.344715X-0.344715X-0.008839X0*%
%ADD27RoundRect,0.237500X0.300000X0.237500X-0.300000X0.237500X-0.300000X-0.237500X0.300000X-0.237500X0*%
%ADD28RoundRect,0.237500X0.044194X0.380070X-0.380070X-0.044194X-0.044194X-0.380070X0.380070X0.044194X0*%
%ADD29RoundRect,0.250000X0.250000X-0.625000X0.250000X0.625000X-0.250000X0.625000X-0.250000X-0.625000X0*%
%ADD30RoundRect,0.250000X-0.412500X-1.100000X0.412500X-1.100000X0.412500X1.100000X-0.412500X1.100000X0*%
%ADD31RoundRect,0.150000X-0.150000X0.512500X-0.150000X-0.512500X0.150000X-0.512500X0.150000X0.512500X0*%
%ADD32R,2.500000X1.500000*%
%ADD33RoundRect,0.250000X1.050000X0.550000X-1.050000X0.550000X-1.050000X-0.550000X1.050000X-0.550000X0*%
%ADD34R,0.700000X1.200000*%
%ADD35RoundRect,0.237500X0.237500X-0.287500X0.237500X0.287500X-0.237500X0.287500X-0.237500X-0.287500X0*%
%ADD36RoundRect,0.250000X-1.000000X-0.650000X1.000000X-0.650000X1.000000X0.650000X-1.000000X0.650000X0*%
%ADD37R,0.250000X0.750000*%
%ADD38O,0.250000X0.750000*%
%ADD39O,0.750000X0.250000*%
%ADD40R,2.750000X2.750000*%
%ADD41R,2.000000X0.400000*%
%ADD42RoundRect,0.100000X0.900000X-0.100000X0.900000X0.100000X-0.900000X0.100000X-0.900000X-0.100000X0*%
%ADD43RoundRect,0.250000X0.350000X0.450000X-0.350000X0.450000X-0.350000X-0.450000X0.350000X-0.450000X0*%
%ADD44RoundRect,0.250000X-0.350000X0.850000X-0.350000X-0.850000X0.350000X-0.850000X0.350000X0.850000X0*%
%ADD45RoundRect,0.250000X-1.125000X1.275000X-1.125000X-1.275000X1.125000X-1.275000X1.125000X1.275000X0*%
%ADD46R,0.720000X1.780000*%
G04 APERTURE END LIST*
D10*
%TO.C,R205*%
X106687500Y107800000D03*
X108512500Y107800000D03*
%TD*%
D11*
%TO.C,C208*%
X63533623Y115533623D03*
X62066377Y114066377D03*
%TD*%
D12*
%TO.C,R304*%
X128112500Y107100000D03*
X126287500Y107100000D03*
%TD*%
D13*
%TO.C,R113*%
X30000000Y110712500D03*
X30000000Y108887500D03*
%TD*%
D14*
%TO.C,R108*%
X31700000Y108887500D03*
X31700000Y110712500D03*
%TD*%
D15*
%TO.C,C202*%
X96737500Y111000000D03*
X98462500Y111000000D03*
%TD*%
D16*
%TO.C,D203*%
X85900000Y116850000D03*
X85900000Y114350000D03*
%TD*%
D13*
%TO.C,R401*%
X209000000Y107212500D03*
X209000000Y105387500D03*
%TD*%
D17*
%TO.C,Q101*%
X41662500Y114750000D03*
X41662500Y112850000D03*
X43537500Y113800000D03*
%TD*%
D18*
%TO.C,C310*%
X118900000Y107537500D03*
X118900000Y105462500D03*
%TD*%
D12*
%TO.C,R103*%
X61612500Y107600000D03*
X59787500Y107600000D03*
%TD*%
D19*
%TO.C,D202*%
X74800000Y116875000D03*
X74800000Y115125000D03*
%TD*%
D20*
%TO.C,C204*%
X95100000Y114762500D03*
X95100000Y113037500D03*
%TD*%
D13*
%TO.C,R115*%
X24900000Y110712500D03*
X24900000Y108887500D03*
%TD*%
D10*
%TO.C,R403*%
X205287500Y109200000D03*
X207112500Y109200000D03*
%TD*%
D21*
%TO.C,U201*%
X99537500Y112950000D03*
X99537500Y113900000D03*
X99537500Y114850000D03*
X97262500Y114850000D03*
X97262500Y113900000D03*
X97262500Y112950000D03*
%TD*%
D22*
%TO.C,C105*%
X25100000Y114537500D03*
X25100000Y116262500D03*
%TD*%
D14*
%TO.C,R203*%
X91700000Y112987500D03*
X91700000Y114812500D03*
%TD*%
%TO.C,R116*%
X36800000Y108887500D03*
X36800000Y110712500D03*
%TD*%
%TO.C,R109*%
X33400000Y108887500D03*
X33400000Y110712500D03*
%TD*%
D15*
%TO.C,C308*%
X122337500Y118800000D03*
X124062500Y118800000D03*
%TD*%
%TO.C,C303*%
X164137500Y107000000D03*
X165862500Y107000000D03*
%TD*%
D23*
%TO.C,C201*%
X99537500Y117100000D03*
X97462500Y117100000D03*
%TD*%
D14*
%TO.C,R118*%
X38500000Y108887500D03*
X38500000Y110712500D03*
%TD*%
D24*
%TO.C,U202*%
X68027728Y113432070D03*
X67462043Y112866384D03*
X66896357Y112300699D03*
X66330672Y111735014D03*
X65764986Y111169328D03*
X65199301Y110603643D03*
X64633616Y110037957D03*
X64067930Y109472272D03*
D25*
X64067930Y107527728D03*
X64633616Y106962043D03*
X65199301Y106396357D03*
X65764986Y105830672D03*
X66330672Y105264986D03*
X66896357Y104699301D03*
X67462043Y104133616D03*
X68027728Y103567930D03*
D24*
X69972272Y103567930D03*
X70537957Y104133616D03*
X71103643Y104699301D03*
X71669328Y105264986D03*
X72235014Y105830672D03*
X72800699Y106396357D03*
X73366384Y106962043D03*
X73932070Y107527728D03*
D25*
X73932070Y109472272D03*
X73366384Y110037957D03*
X72800699Y110603643D03*
X72235014Y111169328D03*
X71669328Y111735014D03*
X71103643Y112300699D03*
X70537957Y112866384D03*
X69972272Y113432070D03*
%TD*%
D26*
%TO.C,R104*%
X66154765Y115154765D03*
X67445235Y116445235D03*
%TD*%
D27*
%TO.C,C305*%
X119262500Y114500000D03*
X117537500Y114500000D03*
%TD*%
D28*
%TO.C,C207*%
X64909880Y113909880D03*
X63690120Y112690120D03*
%TD*%
D29*
%TO.C,SW301*%
X185000000Y109125000D03*
X185000000Y116875000D03*
%TD*%
D30*
%TO.C,C109*%
X41237500Y100100000D03*
X44362500Y100100000D03*
%TD*%
D12*
%TO.C,R307*%
X119312500Y109600000D03*
X117487500Y109600000D03*
%TD*%
D14*
%TO.C,R112*%
X28300000Y108887500D03*
X28300000Y110712500D03*
%TD*%
D23*
%TO.C,C205*%
X103037500Y111000000D03*
X100962500Y111000000D03*
%TD*%
D12*
%TO.C,R107*%
X61612500Y105900000D03*
X59787500Y105900000D03*
%TD*%
D31*
%TO.C,U401*%
X207150000Y107137500D03*
X206200000Y107137500D03*
X205250000Y107137500D03*
X205250000Y104862500D03*
X207150000Y104862500D03*
%TD*%
D14*
%TO.C,R206*%
X74800000Y111587500D03*
X74800000Y113412500D03*
%TD*%
D32*
%TO.C,L201*%
X103400000Y117050000D03*
X103400000Y113350000D03*
%TD*%
D33*
%TO.C,C101*%
X14400000Y108500000D03*
X10800000Y108500000D03*
%TD*%
D20*
%TO.C,C309*%
X119300000Y118062500D03*
X119300000Y116337500D03*
%TD*%
D27*
%TO.C,C306*%
X122962500Y105400000D03*
X121237500Y105400000D03*
%TD*%
D29*
%TO.C,SW302*%
X175000000Y109125000D03*
X175000000Y116875000D03*
%TD*%
D34*
%TO.C,J101*%
X15500000Y113410000D03*
X13480000Y113410000D03*
X12250000Y113410000D03*
X17750000Y113410000D03*
X16520000Y113410000D03*
X14500000Y113410000D03*
%TD*%
D35*
%TO.C,D201*%
X106700000Y109825000D03*
X106700000Y111575000D03*
%TD*%
D12*
%TO.C,R302*%
X175912500Y105000000D03*
X174087500Y105000000D03*
%TD*%
D22*
%TO.C,C104*%
X35100000Y101737500D03*
X35100000Y103462500D03*
%TD*%
D12*
%TO.C,R105*%
X72112500Y115800000D03*
X70287500Y115800000D03*
%TD*%
D29*
%TO.C,SW303*%
X165000000Y109125000D03*
X165000000Y116875000D03*
%TD*%
D23*
%TO.C,C203*%
X103037500Y108700000D03*
X100962500Y108700000D03*
%TD*%
D22*
%TO.C,C108*%
X26800000Y114537500D03*
X26800000Y116262500D03*
%TD*%
D13*
%TO.C,R119*%
X40200000Y110712500D03*
X40200000Y108887500D03*
%TD*%
%TO.C,R201*%
X95100000Y119012500D03*
X95100000Y117187500D03*
%TD*%
D12*
%TO.C,R202*%
X93412500Y117200000D03*
X91587500Y117200000D03*
%TD*%
D23*
%TO.C,C102*%
X13337500Y104200000D03*
X11262500Y104200000D03*
%TD*%
D35*
%TO.C,D101*%
X45700000Y112925000D03*
X45700000Y114675000D03*
%TD*%
D13*
%TO.C,R404*%
X201600000Y106912500D03*
X201600000Y105087500D03*
%TD*%
%TO.C,R102*%
X39500000Y114712500D03*
X39500000Y112887500D03*
%TD*%
D36*
%TO.C,D102*%
X40800000Y103900000D03*
X44800000Y103900000D03*
%TD*%
D20*
%TO.C,C206*%
X61600000Y111162500D03*
X61600000Y109437500D03*
%TD*%
D27*
%TO.C,C106*%
X28462500Y112800000D03*
X26737500Y112800000D03*
%TD*%
D14*
%TO.C,R101*%
X48100000Y112887500D03*
X48100000Y114712500D03*
%TD*%
D10*
%TO.C,R306*%
X76187500Y104100000D03*
X78012500Y104100000D03*
%TD*%
D14*
%TO.C,R106*%
X27200000Y102787500D03*
X27200000Y104612500D03*
%TD*%
D27*
%TO.C,C304*%
X119262500Y112700000D03*
X117537500Y112700000D03*
%TD*%
D37*
%TO.C,U102*%
X31350000Y112950000D03*
D38*
X31850000Y112950000D03*
X32350000Y112950000D03*
X32850000Y112950000D03*
X33350000Y112950000D03*
X33850000Y112950000D03*
D39*
X34550000Y113650000D03*
X34550000Y114150000D03*
X34550000Y114650000D03*
X34550000Y115150000D03*
X34550000Y115650000D03*
X34550000Y116150000D03*
D38*
X33850000Y116850000D03*
X33350000Y116850000D03*
X32850000Y116850000D03*
X32350000Y116850000D03*
X31850000Y116850000D03*
X31350000Y116850000D03*
D39*
X30650000Y116150000D03*
X30650000Y115650000D03*
X30650000Y115150000D03*
X30650000Y114650000D03*
X30650000Y114150000D03*
X30650000Y113650000D03*
D40*
X32600000Y114900000D03*
%TD*%
D13*
%TO.C,R117*%
X35100000Y110712500D03*
X35100000Y108887500D03*
%TD*%
D14*
%TO.C,R114*%
X26600000Y108887500D03*
X26600000Y110712500D03*
%TD*%
D12*
%TO.C,R111*%
X53112500Y110600000D03*
X51287500Y110600000D03*
%TD*%
D41*
%TO.C,J301*%
X122300000Y117030000D03*
D42*
X122300000Y116410000D03*
X122300000Y115790000D03*
X122300000Y115170000D03*
X122300000Y114550000D03*
X122300000Y113930000D03*
X122300000Y113310000D03*
X122300000Y112690000D03*
X122300000Y112070000D03*
X122300000Y111450000D03*
X122300000Y110830000D03*
X122300000Y110210000D03*
X122300000Y109590000D03*
X122300000Y108970000D03*
%TD*%
D12*
%TO.C,R402*%
X207112500Y111000000D03*
X205287500Y111000000D03*
%TD*%
D15*
%TO.C,C302*%
X174137500Y107000000D03*
X175862500Y107000000D03*
%TD*%
D27*
%TO.C,C307*%
X122962500Y107100000D03*
X121237500Y107100000D03*
%TD*%
D22*
%TO.C,C401*%
X203400000Y105137500D03*
X203400000Y106862500D03*
%TD*%
D12*
%TO.C,R301*%
X185912500Y105000000D03*
X184087500Y105000000D03*
%TD*%
D43*
%TO.C,R110*%
X64100000Y101900000D03*
X62100000Y101900000D03*
%TD*%
D13*
%TO.C,R204*%
X93400000Y114812500D03*
X93400000Y112987500D03*
%TD*%
D44*
%TO.C,Q102*%
X54480000Y108100000D03*
D45*
X53725000Y103475000D03*
X50675000Y103475000D03*
X53725000Y100125000D03*
X50675000Y100125000D03*
D44*
X49920000Y108100000D03*
%TD*%
D10*
%TO.C,R305*%
X76187500Y105800000D03*
X78012500Y105800000D03*
%TD*%
D22*
%TO.C,C107*%
X28500000Y114537500D03*
X28500000Y116262500D03*
%TD*%
D15*
%TO.C,C402*%
X205337500Y102900000D03*
X207062500Y102900000D03*
%TD*%
D46*
%TO.C,U101*%
X33005000Y106040000D03*
X31735000Y106040000D03*
X30465000Y106040000D03*
X29195000Y106040000D03*
X29195000Y101360000D03*
X30465000Y101360000D03*
X31735000Y101360000D03*
X33005000Y101360000D03*
%TD*%
D22*
%TO.C,C103*%
X25400000Y102837500D03*
X25400000Y104562500D03*
%TD*%
D12*
%TO.C,R303*%
X165912500Y105000000D03*
X164087500Y105000000D03*
%TD*%
D15*
%TO.C,C301*%
X184137500Y107000000D03*
X185862500Y107000000D03*
%TD*%
M02*
